<svg width="24" height="24" viewBox="0 0 24 24" fill="none" xmlns="http://www.w3.org/2000/svg">
<circle cx="8" cy="8" r="2.5" stroke="#0051FF" stroke-linecap="round"/>
<path d="M11.7679 8.5C12.0332 8.04063 12.47 7.70543 12.9824 7.56815C13.4947 7.43086 14.0406 7.50273 14.5 7.76795C14.9594 8.03317 15.2946 8.47 15.4319 8.98236C15.5691 9.49472 15.4973 10.0406 15.2321 10.5C14.9668 10.9594 14.53 11.2946 14.0176 11.4319C13.5053 11.5691 12.9594 11.4973 12.5 11.2321C12.0406 10.9668 11.7054 10.53 11.5681 10.0176C11.4309 9.50528 11.5027 8.95937 11.7679 8.5L11.7679 8.5Z" stroke="#0051FF"/>
<path d="M13.4054 17.507L13.8992 17.4282L13.4054 17.507ZM12.5 18.5V18H3.50004V18.5V19H12.5V18.5ZM2.59465 17.507L3.08841 17.5857C3.21823 16.7717 3.5304 15.6148 4.26398 14.671C4.97936 13.7507 6.11873 13 8.00004 13V12.5V12C5.80111 12 4.37373 12.9004 3.47444 14.0573C2.59335 15.1909 2.24295 16.5374 2.10089 17.4282L2.59465 17.507ZM8.00004 12.5V13C9.88135 13 11.0207 13.7507 11.7361 14.671C12.4697 15.6148 12.7819 16.7717 12.9117 17.5857L13.4054 17.507L13.8992 17.4282C13.7571 16.5374 13.4067 15.1909 12.5256 14.0573C11.6264 12.9004 10.199 12 8.00004 12V12.5ZM3.50004 18.5V18C3.20829 18 3.05699 17.7827 3.08841 17.5857L2.59465 17.507L2.10089 17.4282C1.95834 18.322 2.68722 19 3.50004 19V18.5ZM12.5 18.5V19C13.3129 19 14.0417 18.322 13.8992 17.4282L13.4054 17.507L12.9117 17.5857C12.9431 17.7827 12.7918 18 12.5 18V18.5Z" fill="#0051FF"/>
<path d="M13.5005 13.5L13.5006 13H13.5005V13.5ZM17.2964 17.416L17.7815 17.2946L17.7815 17.2945L17.2964 17.416ZM16.3951 18.5L16.3951 19L16.3951 19L16.3951 18.5ZM13.4058 17.5068L13.8996 17.4281L13.8996 17.4281L13.4058 17.5068ZM11.8004 13.9814L11.5324 13.5593L11.0174 13.8862L11.439 14.327L11.8004 13.9814ZM13.5005 13.5L13.5005 14C14.528 14.0001 15.2496 14.5028 15.7783 15.207C16.3176 15.9252 16.6343 16.8304 16.8114 17.5375L17.2964 17.416L17.7815 17.2945C17.5903 16.5313 17.2328 15.4786 16.578 14.6065C15.9127 13.7204 14.9205 13.0002 13.5006 13L13.5005 13.5ZM17.2964 17.416L16.8114 17.5375C16.8653 17.7526 16.7073 18 16.3951 18L16.3951 18.5L16.3951 19C17.2661 19 18.015 18.2272 17.7815 17.2946L17.2964 17.416ZM16.3951 18.5V18H12.4996V18.5V19H16.3951V18.5ZM12.4996 18.5V19C13.3118 19 14.0422 18.3224 13.8996 17.4281L13.4058 17.5068L12.9121 17.5856C12.9434 17.7821 12.7919 18 12.4996 18V18.5ZM13.4058 17.5068L13.8996 17.4281C13.7401 16.4281 13.3154 14.8421 12.1617 13.6358L11.8004 13.9814L11.439 14.327C12.3862 15.3173 12.7652 16.6648 12.9121 17.5856L13.4058 17.5068ZM11.8004 13.9814L12.0683 14.4036C12.4584 14.156 12.9268 14 13.5005 14V13.5V13C12.7321 13 12.0786 13.2126 11.5324 13.5593L11.8004 13.9814Z" fill="#0051FF"/>
</svg>
